<?xml version="1.0" encoding="utf-8"?>
<!-- Generator: Adobe Illustrator 22.0.1, SVG Export Plug-In . SVG Version: 6.00 Build 0)  -->
<svg version="1.1" id="Livello_1" xmlns="http://www.w3.org/2000/svg" xmlns:xlink="http://www.w3.org/1999/xlink" x="0px" y="0px"
	 viewBox="0 0 50 50" style="enable-background:new 0 0 50 50;" xml:space="preserve">
<style type="text/css">
	.st0{fill:#FF9900;}
</style>
<path class="st0" d="M42.4,24c-0.9-3.1-3-5.4-5.6-6.8v-1c0-5.4-4.4-9.9-9.9-9.9H22c-5.4,0-9.9,4.4-9.9,9.9v6.3
	C9.8,23.7,8,26,8.1,29.7c-10.1-1-10.8,12.9-1.5,13.9l25.6,0c-4.4-4.1-15-14-15-14l6.6,0.4l-4.6-7.9c-0.6-0.3-1.4-0.5-2.1-0.6v-5.3
	c0-2.7,2.2-4.9,4.9-4.9h4.9c2.6,0,4.6,2,4.9,4.4c-4.4-0.4-9.1,1.5-11.8,6.4L35.6,35L27,34c0,0,4.1,6.5,6.1,9.6l10.1,0
	C50.8,41.7,53.9,27.6,42.4,24"/>
</svg>
